# Created by FreeCAD <https://www.freecad.org>
v 19.302450 -8.038407 9.857957
v 19.302450 -11.472617 9.857957
v 19.302450 -8.038407 -0.142043
v 18.657301 -11.782791 9.857957
v 18.657301 -11.782791 -0.142043
v 17.967186 -11.972962 9.857957
v 17.967186 -11.972962 -0.142043
v 17.254219 -12.037038 9.857957
v 17.254219 -12.037038 -0.142043
v 16.541254 -11.972962 9.857957
v 16.541254 -11.972962 -0.142043
v 15.851138 -11.782791 -0.142043
v 15.851138 -11.782791 9.857957
v 15.205989 -11.472617 9.857957
v 15.205989 -11.472617 -0.142043
v 17.680267 -8.038407 0.491411
v 17.815603 -8.038407 0.611307
v 17.918312 -8.038407 0.760106
v 17.520174 -8.038407 0.407386
v 17.982426 -8.038407 0.929161
v 17.344622 -8.038407 0.364117
v 18.004219 -8.038407 1.108649
v 17.982426 -8.038407 1.288135
v 17.918312 -8.038407 1.457191
v 15.205989 -8.038407 -0.142043
v 17.163816 -8.038407 0.364117
v 16.988266 -8.038407 0.407386
v 16.828171 -8.038407 0.491411
v 16.692837 -8.038407 0.611307
v 16.590128 -8.038407 0.760106
v 16.526012 -8.038407 0.929161
v 16.504219 -8.038407 1.108649
v 16.526012 -8.038407 1.288135
v 16.590128 -8.038407 1.457191
v 17.520174 -8.038407 1.809910
v 17.344622 -8.038407 1.853180
v 17.680267 -8.038407 1.725886
v 17.815603 -8.038407 1.605990
v 15.205989 -8.038407 9.857957
v 16.692837 -8.038407 1.605990
v 16.828171 -8.038407 1.725886
v 16.988266 -8.038407 1.809910
v 17.163816 -8.038407 1.853180
v 16.402122 -8.765526 9.857957
v 16.131453 -9.005318 9.857957
v 15.926036 -9.302917 9.857957
v 16.722313 -8.597478 9.857957
v 15.797807 -9.641028 9.857957
v 17.073414 -8.510939 9.857957
v 15.754220 -10.000002 9.857957
v 17.435024 -8.510939 9.857957
v 15.926036 -10.697086 9.857957
v 15.797807 -10.358975 9.857957
v 16.131453 -10.994686 9.857957
v 17.786127 -8.597478 9.857957
v 18.106318 -8.765526 9.857957
v 18.376986 -9.005318 9.857957
v 16.402122 -11.234478 9.857957
v 18.582403 -9.302917 9.857957
v 18.710632 -9.641028 9.857957
v 16.722313 -11.402527 9.857957
v 17.073414 -11.489065 9.857957
v 18.754219 -10.000002 9.857957
v 17.435024 -11.489065 9.857957
v 18.106318 -11.234478 9.857957
v 17.786127 -11.402527 9.857957
v 18.376986 -10.994686 9.857957
v 18.710632 -10.358975 9.857957
v 18.582403 -10.697086 9.857957
v 16.402122 -8.765526 -0.142043
v 16.131453 -9.005318 -0.142043
v 15.926036 -9.302917 -0.142043
v 16.722313 -8.597478 -0.142043
v 15.797807 -9.641028 -0.142043
v 17.073414 -8.510939 -0.142043
v 15.754220 -10.000002 -0.142043
v 17.435024 -8.510939 -0.142043
v 15.926036 -10.697086 -0.142043
v 15.797807 -10.358975 -0.142043
v 16.131453 -10.994686 -0.142043
v 17.786127 -8.597478 -0.142043
v 18.106318 -8.765526 -0.142043
v 18.376986 -9.005318 -0.142043
v 16.402122 -11.234478 -0.142043
v 18.582403 -9.302917 -0.142043
v 18.710632 -9.641028 -0.142043
v 16.722313 -11.402527 -0.142043
v 17.073414 -11.489065 -0.142043
v 18.754219 -10.000002 -0.142043
v 17.435024 -11.489065 -0.142043
v 18.106318 -11.234478 -0.142043
v 17.786127 -11.402527 -0.142043
v 18.376986 -10.994686 -0.142043
v 19.302450 -11.472617 -0.142043
v 18.710632 -10.358975 -0.142043
v 18.582403 -10.697086 -0.142043
v 18.004219 -4.038407 1.108649
v 17.982426 -4.038407 0.929161
v 17.918312 -4.038407 0.760106
v 17.815603 -4.038407 0.611307
v 17.680267 -4.038407 0.491411
v 17.520174 -4.038407 0.407386
v 17.344622 -4.038407 0.364117
v 17.163816 -4.038407 0.364117
v 16.988266 -4.038407 0.407386
v 16.828171 -4.038407 0.491411
v 16.692837 -4.038407 0.611307
v 16.590128 -4.038407 0.760106
v 16.526012 -4.038407 0.929161
v 16.504219 -4.038407 1.108649
v 16.526012 -4.038407 1.288135
v 16.590128 -4.038407 1.457191
v 16.692837 -4.038407 1.605990
v 16.828171 -4.038407 1.725886
v 16.988266 -4.038407 1.809910
v 17.163816 -4.038407 1.853180
v 17.344622 -4.038407 1.853180
v 17.520174 -4.038407 1.809910
v 17.680267 -4.038407 1.725886
v 17.815603 -4.038407 1.605990
v 17.918312 -4.038407 1.457191
v 17.982426 -4.038407 1.288135
vn 1.000000 0.000000 0.000000
vn 1.000000 0.000000 0.000000
vn 0.433301 -0.901249 0.000000
vn 0.433301 -0.901249 0.000000
vn 0.265662 -0.964066 0.000000
vn 0.265662 -0.964066 0.000000
vn 0.089511 -0.995986 0.000000
vn 0.089511 -0.995986 0.000000
vn -0.089511 -0.995986 0.000000
vn -0.265662 -0.964066 0.000000
vn -0.089511 -0.995986 -0.000000
vn -0.265662 -0.964066 0.000000
vn -0.433301 -0.901249 0.000000
vn -0.433301 -0.901249 -0.000000
vn -0.000000 1.000000 0.000000
vn 0.000000 1.000000 0.000000
vn -0.000000 1.000000 0.000000
vn 0.000000 1.000000 0.000000
vn -0.000000 1.000000 0.000000
vn 0.000000 1.000000 0.000000
vn 0.000000 1.000000 0.000000
vn 0.000000 1.000000 0.000000
vn 0.000000 1.000000 0.000000
vn 0.000000 1.000000 0.000000
vn 0.000000 1.000000 0.000000
vn 0.000000 1.000000 0.000000
vn 0.000000 1.000000 0.000000
vn 0.000000 1.000000 0.000000
vn 0.000000 1.000000 0.000000
vn 0.000000 1.000000 0.000000
vn 0.000000 1.000000 0.000000
vn 0.000000 1.000000 0.000000
vn 0.000000 1.000000 0.000000
vn 0.000000 1.000000 0.000000
vn 0.000000 1.000000 0.000000
vn 0.000000 1.000000 0.000000
vn 0.000000 1.000000 0.000000
vn 0.000000 1.000000 0.000000
vn 0.000000 1.000000 0.000000
vn 0.000000 1.000000 0.000000
vn 0.000000 1.000000 0.000000
vn 0.000000 1.000000 0.000000
vn -0.000000 1.000000 0.000000
vn 0.000000 1.000000 0.000000
vn 0.000000 0.000000 1.000000
vn 0.000000 -0.000000 1.000000
vn 0.000000 0.000000 1.000000
vn 0.000000 -0.000000 1.000000
vn 0.000000 0.000000 1.000000
vn 0.000000 -0.000000 1.000000
vn 0.000000 0.000000 1.000000
vn 0.000000 0.000000 1.000000
vn 0.000000 0.000000 1.000000
vn 0.000000 0.000000 1.000000
vn 0.000000 0.000000 1.000000
vn 0.000000 0.000000 1.000000
vn 0.000000 0.000000 1.000000
vn 0.000000 0.000000 1.000000
vn 0.000000 -0.000000 1.000000
vn 0.000000 -0.000000 1.000000
vn 0.000000 0.000000 1.000000
vn 0.000000 -0.000000 1.000000
vn 0.000000 -0.000000 1.000000
vn 0.000000 -0.000000 1.000000
vn 0.000000 0.000000 1.000000
vn 0.000000 0.000000 1.000000
vn 0.000000 -0.000000 1.000000
vn 0.000000 -0.000000 1.000000
vn 0.000000 0.000000 1.000000
vn 0.000000 -0.000000 1.000000
vn 0.000000 0.000000 1.000000
vn 0.000000 0.000000 1.000000
vn 0.000000 0.000000 1.000000
vn 0.000000 0.000000 1.000000
vn 0.000000 0.000000 1.000000
vn 0.000000 0.000000 1.000000
vn 0.000000 0.000000 1.000000
vn 0.000000 0.000000 1.000000
vn 0.000000 -0.000000 1.000000
vn 0.000000 0.000000 -1.000000
vn -0.000000 0.000000 -1.000000
vn 0.000000 0.000000 -1.000000
vn -0.000000 0.000000 -1.000000
vn 0.000000 0.000000 -1.000000
vn -0.000000 0.000000 -1.000000
vn 0.000000 0.000000 -1.000000
vn -0.000000 0.000000 -1.000000
vn -0.000000 0.000000 -1.000000
vn -0.000000 0.000000 -1.000000
vn 0.000000 -0.000000 -1.000000
vn 0.000000 0.000000 -1.000000
vn 0.000000 0.000000 -1.000000
vn 0.000000 0.000000 -1.000000
vn 0.000000 0.000000 -1.000000
vn 0.000000 0.000000 -1.000000
vn 0.000000 -0.000000 -1.000000
vn 0.000000 0.000000 -1.000000
vn 0.000000 0.000000 -1.000000
vn -0.000000 0.000000 -1.000000
vn 0.000000 -0.000000 -1.000000
vn 0.000000 -0.000000 -1.000000
vn 0.000000 0.000000 -1.000000
vn -0.000000 0.000000 -1.000000
vn 0.000000 -0.000000 -1.000000
vn 0.000000 0.000000 -1.000000
vn 0.000000 -0.000000 -1.000000
vn 0.000000 -0.000000 -1.000000
vn 0.000000 -0.000000 -1.000000
vn 0.000000 -0.000000 -1.000000
vn 0.000000 -0.000000 -1.000000
vn 0.000000 -0.000000 -1.000000
vn 0.000000 -0.000000 -1.000000
vn 0.000000 0.000000 -1.000000
vn 0.000000 -0.000000 -1.000000
vn -1.000000 0.000000 0.000000
vn -1.000000 0.000000 0.000000
vn 0.992709 0.000000 -0.120535
vn 0.992709 0.000000 -0.120535
vn 0.935018 0.000000 -0.354601
vn 0.935018 0.000000 -0.354601
vn 0.822983 0.000000 -0.568066
vn 0.822983 0.000000 -0.568066
vn 0.663119 0.000000 -0.748514
vn 0.663119 0.000000 -0.748514
vn 0.464727 0.000000 -0.885454
vn 0.464727 0.000000 -0.885454
vn 0.239312 0.000000 -0.970943
vn -0.000000 -0.000000 -1.000000
vn 0.239312 0.000000 -0.970943
vn 0.000000 0.000000 -1.000000
vn -0.239315 0.000000 -0.970942
vn -0.239315 0.000000 -0.970942
vn -0.464723 0.000000 -0.885456
vn -0.464723 0.000000 -0.885456
vn -0.663124 0.000000 -0.748509
vn -0.663124 0.000000 -0.748509
vn -0.822983 0.000000 -0.568066
vn -0.822983 0.000000 -0.568066
vn -0.935014 0.000000 -0.354610
vn -0.935014 0.000000 -0.354610
vn -0.992709 -0.000000 -0.120535
vn -0.992709 0.000000 -0.120535
vn -0.992709 0.000000 0.120536
vn -0.992709 0.000000 0.120536
vn -0.935014 0.000000 0.354610
vn -0.935014 0.000000 0.354610
vn -0.822983 0.000000 0.568066
vn -0.822983 0.000000 0.568066
vn -0.663124 0.000000 0.748509
vn -0.464723 0.000000 0.885456
vn -0.663124 0.000000 0.748509
vn -0.464723 0.000000 0.885456
vn -0.239320 0.000000 0.970941
vn -0.239320 0.000000 0.970941
vn -0.000000 0.000000 1.000000
vn 0.000000 0.000000 1.000000
vn 0.239317 0.000000 0.970941
vn 0.239317 -0.000000 0.970941
vn 0.464727 0.000000 0.885454
vn 0.464727 -0.000000 0.885454
vn 0.663119 0.000000 0.748514
vn 0.822983 0.000000 0.568066
vn 0.663119 -0.000000 0.748514
vn 0.822983 0.000000 0.568066
vn 0.935018 0.000000 0.354601
vn 0.935018 -0.000000 0.354601
vn 0.992709 0.000000 0.120536
vn 0.992709 -0.000000 0.120536
vn -0.992709 0.120535 0.000000
vn -0.992709 0.120535 0.000000
vn -0.935016 0.354606 0.000000
vn -0.935016 0.354606 0.000000
vn -0.822985 0.568063 0.000000
vn -0.822985 0.568063 0.000000
vn -0.663124 0.748509 0.000000
vn -0.663124 0.748509 0.000000
vn -0.464723 0.885456 0.000000
vn -0.239314 0.970942 0.000000
vn -0.464723 0.885456 0.000000
vn -0.239314 0.970942 0.000000
vn 0.000000 1.000000 0.000000
vn -0.000000 1.000000 0.000000
vn 0.239315 0.970942 0.000000
vn 0.239315 0.970942 0.000000
vn 0.464723 0.885456 0.000000
vn 0.663121 0.748512 0.000000
vn 0.464723 0.885456 0.000000
vn 0.663121 0.748512 0.000000
vn 0.822986 0.568062 0.000000
vn 0.822986 0.568062 0.000000
vn 0.935016 0.354606 0.000000
vn 0.935016 0.354606 0.000000
vn 0.992709 0.120535 0.000000
vn 0.992709 0.120535 0.000000
vn 0.992709 -0.120535 0.000000
vn 0.992709 -0.120535 0.000000
vn 0.935016 -0.354606 0.000000
vn 0.935016 -0.354606 0.000000
vn 0.822986 -0.568062 0.000000
vn 0.822986 -0.568062 0.000000
vn 0.663121 -0.748512 0.000000
vn 0.663121 -0.748512 0.000000
vn 0.464721 -0.885457 0.000000
vn 0.464721 -0.885457 0.000000
vn 0.239317 -0.970941 0.000000
vn 0.000000 -1.000000 0.000000
vn 0.239317 -0.970941 0.000000
vn -0.239316 -0.970942 -0.000000
vn -0.000000 -1.000000 -0.000000
vn -0.239316 -0.970942 -0.000000
vn -0.464721 -0.885457 -0.000000
vn -0.464721 -0.885457 0.000000
vn -0.663124 -0.748509 -0.000000
vn -0.663124 -0.748509 0.000000
vn -0.822985 -0.568063 -0.000000
vn -0.822985 -0.568063 0.000000
vn -0.935016 -0.354606 -0.000000
vn -0.935016 -0.354606 0.000000
vn -0.992709 -0.120535 -0.000000
vn -0.992709 -0.120535 0.000000
vn 0.000000 1.000000 0.000000
vn -0.000000 1.000000 0.000000
vn 0.000000 1.000000 0.000000
vn 0.000000 1.000000 0.000000
vn 0.000000 1.000000 0.000000
vn 0.000000 1.000000 0.000000
vn 0.000000 1.000000 0.000000
vn 0.000000 1.000000 0.000000
vn 0.000000 1.000000 0.000000
vn -0.000000 1.000000 0.000000
vn -0.000000 1.000000 0.000000
vn -0.000000 1.000000 0.000000
vn -0.000000 1.000000 0.000000
vn -0.000000 1.000000 0.000000
vn -0.000000 1.000000 0.000000
vn -0.000000 1.000000 0.000000
vn -0.000000 1.000000 0.000000
vn 0.000000 1.000000 0.000000
vn 0.000000 1.000000 0.000000
vn 0.000000 1.000000 0.000000
vn 0.000000 1.000000 0.000000
vn 0.000000 1.000000 0.000000
vn 0.000000 1.000000 0.000000
vn 0.000000 1.000000 0.000000
f 1//1 2//1 94//1
f 1//2 94//2 3//2
f 2//3 4//3 94//3
f 94//4 4//4 5//4
f 5//5 6//5 7//5
f 4//6 6//6 5//6
f 7//7 8//7 9//7
f 6//8 8//8 7//8
f 9//9 10//9 11//9
f 11//10 10//10 12//10
f 8//11 10//11 9//11
f 10//12 13//12 12//12
f 12//13 14//13 15//13
f 13//14 14//14 12//14
f 16//15 17//15 3//15
f 18//16 3//16 17//16
f 19//17 16//17 3//17
f 20//18 3//18 18//18
f 21//19 19//19 3//19
f 22//20 3//20 20//20
f 23//21 3//21 22//21
f 24//22 3//22 23//22
f 25//23 26//23 21//23
f 25//24 27//24 26//24
f 25//25 28//25 27//25
f 25//26 29//26 28//26
f 25//27 30//27 29//27
f 25//28 31//28 30//28
f 25//29 32//29 31//29
f 25//30 21//30 3//30
f 33//31 32//31 25//31
f 34//32 33//32 25//32
f 1//33 35//33 36//33
f 1//34 37//34 35//34
f 1//35 38//35 37//35
f 1//36 24//36 38//36
f 1//37 3//37 24//37
f 39//38 40//38 34//38
f 39//39 41//39 40//39
f 39//40 42//40 41//40
f 39//41 43//41 42//41
f 39//42 36//42 43//42
f 39//43 1//43 36//43
f 39//44 34//44 25//44
f 44//45 39//45 45//45
f 46//46 45//46 39//46
f 47//47 39//47 44//47
f 48//48 46//48 39//48
f 49//49 39//49 47//49
f 50//50 48//50 39//50
f 51//51 39//51 49//51
f 14//52 52//52 53//52
f 14//53 53//53 50//53
f 14//54 50//54 39//54
f 54//55 52//55 14//55
f 1//56 51//56 55//56
f 1//57 55//57 56//57
f 1//58 39//58 51//58
f 57//59 1//59 56//59
f 13//60 54//60 14//60
f 58//61 54//61 13//61
f 59//62 1//62 57//62
f 60//63 1//63 59//63
f 10//64 61//64 58//64
f 10//65 58//65 13//65
f 62//66 61//66 10//66
f 63//67 1//67 60//67
f 8//68 64//68 62//68
f 8//69 62//69 10//69
f 6//70 65//70 66//70
f 6//71 66//71 64//71
f 6//72 64//72 8//72
f 4//73 65//73 6//73
f 4//74 67//74 65//74
f 2//75 67//75 4//75
f 2//76 63//76 68//76
f 2//77 68//77 69//77
f 2//78 69//78 67//78
f 2//79 1//79 63//79
f 25//80 70//80 71//80
f 71//81 72//81 25//81
f 25//82 73//82 70//82
f 72//83 74//83 25//83
f 25//84 75//84 73//84
f 74//85 76//85 25//85
f 25//86 77//86 75//86
f 78//87 15//87 79//87
f 79//88 15//88 76//88
f 76//89 15//89 25//89
f 78//90 80//90 15//90
f 77//91 3//91 81//91
f 81//92 3//92 82//92
f 25//93 3//93 77//93
f 3//94 83//94 82//94
f 80//95 12//95 15//95
f 80//96 84//96 12//96
f 3//97 85//97 83//97
f 3//98 86//98 85//98
f 87//99 11//99 84//99
f 84//100 11//100 12//100
f 87//101 88//101 11//101
f 3//102 89//102 86//102
f 90//103 9//103 88//103
f 88//104 9//104 11//104
f 91//105 7//105 92//105
f 92//106 7//106 90//106
f 90//107 7//107 9//107
f 93//108 5//108 91//108
f 91//109 5//109 7//109
f 89//110 94//110 95//110
f 95//111 94//111 96//111
f 96//112 94//112 93//112
f 93//113 94//113 5//113
f 3//114 94//114 89//114
f 14//115 39//115 25//115
f 14//116 25//116 15//116
f 22//117 20//117 97//117
f 97//118 20//118 98//118
f 98//119 18//119 99//119
f 20//120 18//120 98//120
f 99//121 17//121 100//121
f 18//122 17//122 99//122
f 100//123 16//123 101//123
f 17//124 16//124 100//124
f 101//125 19//125 102//125
f 16//126 19//126 101//126
f 102//127 21//127 103//127
f 103//128 21//128 104//128
f 19//129 21//129 102//129
f 21//130 26//130 104//130
f 104//131 27//131 105//131
f 26//132 27//132 104//132
f 105//133 28//133 106//133
f 27//134 28//134 105//134
f 106//135 29//135 107//135
f 28//136 29//136 106//136
f 107//137 30//137 108//137
f 29//138 30//138 107//138
f 30//139 31//139 108//139
f 108//140 31//140 109//140
f 109//141 31//141 110//141
f 31//142 32//142 110//142
f 110//143 33//143 111//143
f 32//144 33//144 110//144
f 111//145 34//145 112//145
f 33//146 34//146 111//146
f 112//147 40//147 113//147
f 34//148 40//148 112//148
f 113//149 41//149 114//149
f 114//150 41//150 115//150
f 40//151 41//151 113//151
f 41//152 42//152 115//152
f 115//153 43//153 116//153
f 42//154 43//154 115//154
f 116//155 36//155 117//155
f 43//156 36//156 116//156
f 117//157 35//157 118//157
f 36//158 35//158 117//158
f 118//159 37//159 119//159
f 35//160 37//160 118//160
f 119//161 38//161 120//161
f 120//162 38//162 121//162
f 37//163 38//163 119//163
f 38//164 24//164 121//164
f 121//165 23//165 122//165
f 24//166 23//166 121//166
f 122//167 22//167 97//167
f 23//168 22//168 122//168
f 68//169 63//169 89//169
f 68//170 89//170 95//170
f 69//171 95//171 96//171
f 69//172 68//172 95//172
f 67//173 96//173 93//173
f 67//174 69//174 96//174
f 65//175 93//175 91//175
f 65//176 67//176 93//176
f 66//177 91//177 92//177
f 66//178 92//178 90//178
f 66//179 65//179 91//179
f 64//180 66//180 90//180
f 62//181 90//181 88//181
f 62//182 64//182 90//182
f 61//183 88//183 87//183
f 61//184 62//184 88//184
f 58//185 87//185 84//185
f 58//186 84//186 80//186
f 58//187 61//187 87//187
f 54//188 58//188 80//188
f 52//189 54//189 80//189
f 52//190 80//190 78//190
f 52//191 78//191 79//191
f 53//192 52//192 79//192
f 50//193 53//193 79//193
f 50//194 79//194 76//194
f 48//195 76//195 74//195
f 48//196 50//196 76//196
f 46//197 48//197 74//197
f 46//198 74//198 72//198
f 45//199 72//199 71//199
f 45//200 46//200 72//200
f 44//201 71//201 70//201
f 44//202 45//202 71//202
f 47//203 70//203 73//203
f 47//204 44//204 70//204
f 49//205 73//205 75//205
f 49//206 75//206 77//206
f 49//207 47//207 73//207
f 51//208 77//208 81//208
f 51//209 49//209 77//209
f 55//210 51//210 81//210
f 56//211 81//211 82//211
f 56//212 55//212 81//212
f 57//213 82//213 83//213
f 57//214 56//214 82//214
f 59//215 83//215 85//215
f 59//216 57//216 83//216
f 60//217 85//217 86//217
f 60//218 59//218 85//218
f 63//219 86//219 89//219
f 63//220 60//220 86//220
f 104//221 102//221 103//221
f 113//222 114//222 112//222
f 98//223 122//223 97//223
f 99//224 122//224 98//224
f 100//225 122//225 99//225
f 117//226 119//226 116//226
f 118//227 119//227 117//227
f 101//228 120//228 100//228
f 102//229 120//229 101//229
f 105//230 120//230 104//230
f 106//231 120//231 105//231
f 107//232 120//232 106//232
f 108//233 120//233 107//233
f 109//234 120//234 108//234
f 110//235 120//235 109//235
f 111//236 120//236 110//236
f 112//237 120//237 111//237
f 115//238 120//238 114//238
f 116//239 120//239 115//239
f 122//240 120//240 121//240
f 114//241 120//241 112//241
f 119//242 120//242 116//242
f 104//243 120//243 102//243
f 100//244 120//244 122//244
